<svg id="Layer_1" data-name="Layer 1" xmlns="http://www.w3.org/2000/svg" viewBox="0 0 639.31 72.2"><g id="LSU_-_Illustrator" data-name="LSU - Illustrator"><path d="M144.37,69.48V47.25H101.81V41c0-2.78,3.08-5,6.8-5h35.76V24H99c-9.66,0-17.55,5.85-17.55,13V59.17h42.56v6.37c0,2.77-3.08,5-6.88,5H81.49V82.5h45.26C136.48,82.5,144.37,76.65,144.37,69.48Z" transform="translate(-24 -17.11)"/><polygon points="52.65 53.55 20.18 53.55 20.18 6.89 0 6.89 0 65.39 52.65 65.39 52.65 53.55"/><path d="M211.92,69.48V24H191.66V65.54c0,2.85-3.07,5.11-6.87,5.11h-15.5V24.14H149.18V82.5h45.19C204,82.5,211.92,76.65,211.92,69.48Z" transform="translate(-24 -17.11)"/></g><rect x="213.38" width="1.5" height="72.2"/><path d="M260.17,49.93c0-8,6.05-13.46,13.65-13.46a12,12,0,0,1,11.08,6.36l-4.76,2.34a7.13,7.13,0,0,0-6.32-3.78c-4.52,0-7.95,3.63-7.95,8.54s3.43,8.54,7.95,8.54a7.05,7.05,0,0,0,6.32-3.78L284.9,57a12.07,12.07,0,0,1-11.08,6.4C266.22,63.39,260.17,57.93,260.17,49.93Z" transform="translate(-24 -17.11)"/><path d="M286.89,53.48a10,10,0,0,1,19.93,0,10,10,0,0,1-19.93,0Zm14.78,0c0-2.93-1.76-5.46-4.84-5.46s-4.8,2.53-4.8,5.46,1.72,5.5,4.8,5.5S301.67,56.44,301.67,53.48Z" transform="translate(-24 -17.11)"/><path d="M310.48,36.9h4.95v26h-4.95Z" transform="translate(-24 -17.11)"/><path d="M320.35,36.9h4.95v26h-4.95Z" transform="translate(-24 -17.11)"/><path d="M338.76,43.61c5.61,0,9.43,4.21,9.43,10.38v1.09h-14c.31,2.38,2.23,4.37,5.42,4.37a7.72,7.72,0,0,0,5-1.87l2.18,3.19a11.73,11.73,0,0,1-7.76,2.62c-5.74,0-10.06-3.87-10.06-9.91A9.59,9.59,0,0,1,338.76,43.61Zm-4.65,8.11h9.29a4.37,4.37,0,0,0-4.64-4.17A4.53,4.53,0,0,0,334.11,51.72Z" transform="translate(-24 -17.11)"/><path d="M353.61,64.17a7.52,7.52,0,0,0,5.89,2.34c2.38,0,5.19-1.06,5.19-4.76V59.84a7.33,7.33,0,0,1-5.81,3c-4.72,0-8.31-3.31-8.31-9.59s3.55-9.6,8.31-9.6a7.26,7.26,0,0,1,5.81,2.89V44.08h5V61.63c0,7.18-5.54,8.93-10.18,8.93a11.41,11.41,0,0,1-8.11-2.81Zm11.08-14A5.39,5.39,0,0,0,360.44,48c-2.81,0-4.76,1.95-4.76,5.19s1.95,5.18,4.76,5.18a5.47,5.47,0,0,0,4.25-2.14Z" transform="translate(-24 -17.11)"/><path d="M383.14,43.61c5.61,0,9.43,4.21,9.43,10.38v1.09h-14A5.09,5.09,0,0,0,384,59.45a7.72,7.72,0,0,0,5-1.87l2.18,3.19a11.73,11.73,0,0,1-7.76,2.62c-5.73,0-10.06-3.87-10.06-9.91A9.59,9.59,0,0,1,383.14,43.61Zm-4.64,8.11h9.28a4.37,4.37,0,0,0-4.64-4.17A4.52,4.52,0,0,0,378.5,51.72Z" transform="translate(-24 -17.11)"/><path d="M404.94,53.48a10,10,0,0,1,19.93,0,10,10,0,0,1-19.93,0Zm14.78,0c0-2.93-1.76-5.46-4.84-5.46s-4.8,2.53-4.8,5.46,1.72,5.5,4.8,5.5S419.72,56.44,419.72,53.48Z" transform="translate(-24 -17.11)"/><path d="M429.62,48.41H426.5V44.08h3.12v-1c0-4.1,2.66-6.56,6.36-6.56a8.15,8.15,0,0,1,3.59.78l-1,3.51a3,3,0,0,0-1.59-.39c-1.41,0-2.34.94-2.34,2.73v.94h3.82v4.33h-3.82V62.92h-5Z" transform="translate(-24 -17.11)"/><path d="M468,58.43H456.34l-1.64,4.49h-6.08l10.06-26h6.94l10,26h-6Zm-10.14-4.79h8.62L462.15,41.7Z" transform="translate(-24 -17.11)"/><path d="M477.94,44.08h5v2.57a8.06,8.06,0,0,1,6-3v4.84a6.11,6.11,0,0,0-1.36-.16,6.31,6.31,0,0,0-4.64,2.15V62.92h-5Z" transform="translate(-24 -17.11)"/><path d="M493,58.24V48.41h-3.12V44.08H493V38.93h5v5.15h3.82v4.33H498v8.5c0,1.17.63,2.07,1.72,2.07a2.64,2.64,0,0,0,1.71-.55l1.06,3.75a6.16,6.16,0,0,1-4.14,1.21C494.83,63.39,493,61.59,493,58.24Z" transform="translate(-24 -17.11)"/><path d="M524.24,59.21h-3.4V51.3h-7V48.21h7v-7.6h3.4v7.6h7V51.3h-7Z" transform="translate(-24 -17.11)"/><path d="M544.91,36.9h10.25c8.15,0,13.81,5.19,13.81,13s-5.66,13-13.81,13H544.91ZM555.16,58a7.78,7.78,0,0,0,8.15-8.11c0-4.6-2.8-8.15-8.15-8.15h-4.72V58Z" transform="translate(-24 -17.11)"/><path d="M581.33,43.61c5.62,0,9.44,4.21,9.44,10.38v1.09h-14c.31,2.38,2.22,4.37,5.42,4.37a7.71,7.71,0,0,0,5-1.87l2.18,3.19a11.71,11.71,0,0,1-7.76,2.62c-5.73,0-10.06-3.87-10.06-9.91A9.59,9.59,0,0,1,581.33,43.61Zm-4.64,8.11H586a4.36,4.36,0,0,0-4.64-4.17A4.52,4.52,0,0,0,576.69,51.72Z" transform="translate(-24 -17.11)"/><path d="M594.86,57a10.79,10.79,0,0,0,6.52,2.57c2.14,0,3.16-.74,3.16-1.91s-1.64-1.79-3.79-2.22c-3.23-.62-7.41-1.4-7.41-5.89,0-3.16,2.77-5.93,7.72-5.93a12,12,0,0,1,7.61,2.58l-2,3.39a7.93,7.93,0,0,0-5.58-2.18c-1.79,0-3,.66-3,1.75s1.48,1.6,3.59,2c3.23.62,7.56,1.48,7.56,6.16,0,3.43-2.92,6-8.15,6a12.7,12.7,0,0,1-8.42-2.93Z" transform="translate(-24 -17.11)"/><path d="M612.45,38.7a3,3,0,1,1,5.93,0,3,3,0,0,1-5.93,0Zm.51,5.38h4.95V62.92H613Z" transform="translate(-24 -17.11)"/><path d="M624.66,64.17a7.51,7.51,0,0,0,5.89,2.34c2.38,0,5.19-1.06,5.19-4.76V59.84a7.35,7.35,0,0,1-5.82,3c-4.71,0-8.3-3.31-8.3-9.59s3.55-9.6,8.3-9.6a7.28,7.28,0,0,1,5.82,2.89V44.08h5V61.63c0,7.18-5.54,8.93-10.18,8.93a11.39,11.39,0,0,1-8.11-2.81Zm11.08-14A5.41,5.41,0,0,0,631.48,48c-2.8,0-4.75,1.95-4.75,5.19s1.95,5.18,4.75,5.18a5.49,5.49,0,0,0,4.26-2.14Z" transform="translate(-24 -17.11)"/><path d="M658.36,51.53c0-2.61-1.37-3.51-3.48-3.51a5.37,5.37,0,0,0-4.29,2.22V62.92h-5V44.08h5v2.46a8.61,8.61,0,0,1,6.6-2.93c4.13,0,6.12,2.34,6.12,6v13.3h-4.95Z" transform="translate(-24 -17.11)"/></svg>