<?xml version="1.0" encoding="utf-8"?>
<!-- Generator: Adobe Illustrator 24.2.3, SVG Export Plug-In . SVG Version: 6.00 Build 0)  -->
<svg version="1.1" id="Layer_1" xmlns="http://www.w3.org/2000/svg" xmlns:xlink="http://www.w3.org/1999/xlink" x="0px" y="0px"
	 viewBox="0 0 360 54" style="enable-background:new 0 0 360 54;" xml:space="preserve">
<g>
	<polygon points="21.85,4.6 8.36,4.6 8.36,43.79 43.56,43.79 43.56,35.85 21.85,35.85 	"/>
	<path d="M46.78,13.32v14.84h28.46v4.26c0,1.86-2.05,3.38-4.6,3.38H46.78v7.99h30.27c6.5,0,11.78-3.92,11.78-8.72V20.18H60.38v-4.21
		c0-1.86,2.05-3.38,4.55-3.38h23.91V4.6H58.52C52.06,4.6,46.78,8.52,46.78,13.32z"/>
	<path d="M120.81,4.6v27.83c0,1.91-2.05,3.43-4.6,3.43h-10.36V4.7H92.4v39.09h30.21c6.45,0,11.73-3.92,11.73-8.72V4.6H120.81z"/>
</g>
<g>
	<path d="M181.06,43.8l-1.72-5.78h-7.14l-1.72,5.78h-5.11l7.98-24.4h5.29l7.67,24.4H181.06z M176.83,29.06
		c-0.24-1.12-0.98-4.31-0.98-4.31s-0.7,2.87-1.15,4.69c-0.46,1.75-0.77,2.9-1.29,4.52h4.76C178.16,33.96,177.35,31.41,176.83,29.06z
		"/>
	<path d="M197.41,29.97c-0.46-0.25-0.84-0.35-1.37-0.35c-1.05,0-2,0.49-2.87,1.5V43.8h-4.69V31.83c0-2.42-0.28-4.24-0.67-5.25
		l4.2-1.12c0.42,0.73,0.66,1.54,0.73,2.56c1.02-1.37,2.45-2.56,4.2-2.56c0.7,0,1.01,0.07,1.75,0.38L197.41,29.97z"/>
	<path d="M206.65,44.22c-2.38,0-4.27-1.05-4.83-2.63c-0.28-0.77-0.31-1.12-0.31-2.77V29.1h-1.79v-3.22h1.79c0-1.75,0-2.91,0.17-4.24
		l4.76-1.19c-0.18,1.65-0.28,3.61-0.28,5.43h4.2l-1.19,3.22h-3.01v9c0,2.27,0.42,2.87,2.03,2.87c0.42,0,0.84-0.11,1.68-0.35l0.6,2.8
		C209.1,43.97,207.87,44.22,206.65,44.22z"/>
	<path d="M232.93,35.4v7.38h-4.41V35.4h-7.39v-4.41h7.39V23.6h4.41v7.39h7.39v4.41H232.93z"/>
	<path d="M267.37,40.16c-1.47,1.99-3.64,3.32-5.92,3.5c-0.91,0.07-2.06,0.14-3.5,0.14h-5.92V19.47h4.9c1.4,0,3.26,0.07,4.24,0.14
		c2.06,0.17,3.85,0.95,5.32,2.42c2.24,2.21,3.33,5.32,3.33,9.7C269.82,35.05,269.01,37.95,267.37,40.16z M263.1,25.35
		c-0.81-1.33-1.93-2.03-3.85-2.03h-2.24v16.49h2.63c3.22,0,4.69-2.49,4.69-7.63C264.33,29.34,264.08,26.96,263.1,25.35z"/>
	<path d="M277.69,36.31v0.14c0,2.77,1.37,4.34,3.78,4.34c1.61,0,3.12-0.59,4.55-1.79l1.82,2.8c-2.06,1.68-4.23,2.49-6.76,2.49
		c-5.14,0-8.47-3.64-8.47-9.28c0-3.22,0.67-5.36,2.24-7.11c1.47-1.64,3.26-2.42,5.64-2.42c2.06,0,4.03,0.7,5.18,1.89
		c1.64,1.68,2.38,4.09,2.38,7.84c0,0.38,0,0.77,0,1.09H277.69z M283.19,32.67c0-1.33-0.14-2.03-0.56-2.7
		c-0.46-0.7-1.12-1.05-2.07-1.05c-1.79,0-2.8,1.4-2.8,3.88v0.07h5.43V32.67z"/>
	<path d="M297.05,44.36c-2.21,0-4.62-0.7-7.25-2.07l1.68-3.43c1.44,0.88,3.92,2.03,5.95,2.03c1.33,0,2.38-0.88,2.38-2.03
		c0-1.22-0.88-1.86-2.76-2.21l-2.1-0.38c-1.19-0.21-2.66-1.05-3.29-1.82c-0.63-0.77-1.02-2.07-1.02-3.22c0-3.5,2.77-5.85,6.93-5.85
		c2.87,0,4.76,0.88,6.41,1.68l-1.54,3.15c-1.79-0.91-3.08-1.29-4.41-1.29c-1.37,0-2.27,0.7-2.27,1.75c0,0.91,0.59,1.4,2.24,1.82
		l2.17,0.56c2.21,0.56,2.94,1.22,3.57,2.03c0.66,0.84,0.98,1.86,0.98,3.05C304.72,41.84,301.63,44.36,297.05,44.36z"/>
	<path d="M310.56,23.85c-1.58,0-2.87-1.29-2.87-2.91c0-1.61,1.33-2.91,2.94-2.91c1.58,0,2.84,1.29,2.84,2.91
		C313.46,22.55,312.17,23.85,310.56,23.85z M308.21,43.8V26.19l4.69-0.73V43.8H308.21z"/>
	<path d="M332.26,29.17c-0.45,0-0.95-0.07-1.23-0.1c0.7,0.84,1.05,1.75,1.05,2.94c0,3.08-2.8,5.32-6.62,5.32
		c-0.21,0-0.35,0-0.7-0.04c-1.19,0.56-1.86,0.98-1.86,1.47c0,0.24,0.28,0.42,0.77,0.42l2.52,0.04c2.73,0.04,4.17,0.46,5.43,1.61
		c1.05,0.98,1.54,2.21,1.54,3.82c0,1.51-0.45,2.66-1.43,3.71c-1.58,1.68-4.27,2.31-7.07,2.31c-2.55,0-5.18-0.42-6.79-1.92
		c-0.98-0.91-1.47-1.96-1.47-3.19c0-0.98,0.24-1.47,0.42-1.82h4.34c-0.17,0.42-0.21,0.66-0.21,1.15c0,1.44,1.19,2.21,3.36,2.21
		c1.19,0,2.21-0.14,2.94-0.59c0.7-0.42,1.15-1.09,1.15-1.82c0-1.61-1.44-2.1-3.29-2.13l-1.99-0.04c-2.1-0.04-3.46-0.21-4.3-0.56
		c-0.84-0.31-1.37-1.12-1.37-2.35c0-1.15,0.35-2.24,3.29-3.01c-2.59-0.67-3.85-2.31-3.85-4.97c0-3.68,2.97-6.06,7.56-6.06
		c1.02,0,1.93,0.14,3.22,0.46c0.98,0.25,1.61,0.38,2.21,0.38c1.29,0,2.63-0.56,3.71-1.54l1.96,2.97
		C334.53,28.78,333.56,29.17,332.26,29.17z M324.42,28.99c-1.79,0-2.8,0.98-2.8,2.66c0,1.82,1.12,2.55,2.77,2.55
		c1.86,0,2.87-0.91,2.87-2.55C327.25,29.97,326.2,28.99,324.42,28.99z"/>
	<path d="M346.68,43.8V32.14c0-2.03-0.35-2.63-1.57-2.63c-0.95,0-2.17,0.63-3.26,1.61V43.8h-4.69V30.81c0-1.54-0.21-3.01-0.63-4.2
		l4.16-1.19c0.42,0.74,0.67,1.51,0.67,2.24c0.7-0.49,1.29-0.91,2.06-1.33c0.95-0.49,2.17-0.77,3.22-0.77c2,0,3.75,1.05,4.31,2.59
		c0.24,0.66,0.35,1.43,0.35,2.55V43.8H346.68z"/>
</g>
<g>
	<path d="M170.76,13.64c-1.15,0-2.04-0.37-2.72-1.15c-0.67-0.76-1.01-1.76-1.01-2.99c0-1.04,0.18-1.87,0.56-2.59
		c0.65-1.21,1.85-1.93,3.19-1.93c0.83,0,1.66,0.26,2.11,0.66l-0.76,1.14c-0.42-0.31-0.86-0.47-1.33-0.47
		c-0.56,0-1.12,0.28-1.42,0.72c-0.32,0.48-0.47,1.18-0.47,2.15c0,1.14,0.1,1.78,0.35,2.23c0.33,0.61,0.89,0.94,1.61,0.94
		c0.49,0,0.94-0.14,1.43-0.54l0.77,1.06C172.41,13.4,171.71,13.64,170.76,13.64z"/>
	<path d="M178.05,12.78c-0.47,0.53-1.08,0.85-2.03,0.85c-1.67,0-2.76-1.25-2.76-3.18c0-1.93,1.1-3.21,2.76-3.21
		c0.88,0,1.56,0.3,2.09,0.92c0.49,0.58,0.71,1.25,0.71,2.24C178.82,11.46,178.58,12.18,178.05,12.78z M176.75,8.75
		c-0.16-0.2-0.41-0.32-0.7-0.32c-0.38,0-0.7,0.24-0.83,0.62c-0.11,0.32-0.17,0.76-0.17,1.37c0,0.71,0.07,1.24,0.21,1.55
		c0.14,0.34,0.5,0.5,0.81,0.5c0.7,0,1-0.62,1-2.08C177.07,9.56,176.96,9.02,176.75,8.75z"/>
	<path d="M181.61,13.64c-0.68,0-1.24-0.32-1.43-0.84c-0.12-0.31-0.14-0.5-0.14-1.38V6.84c0-0.8-0.02-1.3-0.08-1.85l1.64-0.37
		c0.06,0.34,0.08,0.73,0.08,1.6V11c0,1.06,0.01,1.2,0.11,1.37c0.06,0.11,0.19,0.17,0.32,0.17c0.06,0,0.1,0,0.18-0.02l0.28,0.96
		C182.29,13.58,181.96,13.64,181.61,13.64z"/>
	<path d="M184.87,13.64c-0.68,0-1.24-0.32-1.43-0.84c-0.12-0.31-0.14-0.5-0.14-1.38V6.84c0-0.8-0.02-1.3-0.08-1.85l1.64-0.37
		c0.06,0.34,0.08,0.73,0.08,1.6V11c0,1.06,0.01,1.2,0.11,1.37c0.06,0.11,0.19,0.17,0.32,0.17c0.06,0,0.1,0,0.18-0.02l0.28,0.96
		C185.56,13.58,185.22,13.64,184.87,13.64z"/>
	<path d="M188,10.93v0.05c0,0.95,0.47,1.49,1.29,1.49c0.55,0,1.07-0.2,1.56-0.61l0.62,0.96c-0.71,0.58-1.45,0.85-2.31,0.85
		c-1.76,0-2.9-1.25-2.9-3.18c0-1.1,0.23-1.83,0.77-2.43c0.5-0.56,1.12-0.83,1.93-0.83c0.71,0,1.38,0.24,1.78,0.65
		c0.56,0.58,0.82,1.4,0.82,2.69c0,0.13,0,0.26,0,0.37H188z M189.89,9.68c0-0.46-0.05-0.7-0.19-0.92c-0.16-0.24-0.38-0.36-0.71-0.36
		c-0.61,0-0.96,0.48-0.96,1.33v0.02h1.86V9.68z"/>
	<path d="M197.6,8.48c-0.16,0-0.32-0.02-0.42-0.04c0.24,0.29,0.36,0.6,0.36,1.01c0,1.06-0.96,1.82-2.27,1.82
		c-0.07,0-0.12,0-0.24-0.01c-0.41,0.19-0.64,0.34-0.64,0.5c0,0.08,0.1,0.14,0.26,0.14l0.86,0.01c0.94,0.01,1.43,0.16,1.86,0.55
		c0.36,0.34,0.53,0.76,0.53,1.31c0,0.52-0.16,0.91-0.49,1.27c-0.54,0.58-1.46,0.79-2.42,0.79c-0.88,0-1.78-0.14-2.33-0.66
		c-0.34-0.31-0.5-0.67-0.5-1.09c0-0.34,0.08-0.5,0.14-0.62h1.49c-0.06,0.14-0.07,0.23-0.07,0.4c0,0.49,0.41,0.76,1.15,0.76
		c0.41,0,0.75-0.05,1.01-0.2c0.24-0.14,0.4-0.37,0.4-0.62c0-0.55-0.49-0.72-1.13-0.73l-0.68-0.01c-0.72-0.01-1.19-0.07-1.47-0.19
		c-0.29-0.11-0.47-0.38-0.47-0.8c0-0.4,0.12-0.77,1.13-1.03c-0.89-0.23-1.32-0.79-1.32-1.7c0-1.26,1.02-2.07,2.59-2.07
		c0.35,0,0.66,0.05,1.1,0.16c0.34,0.08,0.55,0.13,0.76,0.13c0.44,0,0.9-0.19,1.27-0.53l0.67,1.02
		C198.38,8.35,198.05,8.48,197.6,8.48z M194.91,8.42c-0.61,0-0.96,0.34-0.96,0.91c0,0.62,0.38,0.88,0.95,0.88
		c0.64,0,0.98-0.31,0.98-0.88C195.89,8.76,195.53,8.42,194.91,8.42z"/>
	<path d="M200.54,10.93v0.05c0,0.95,0.47,1.49,1.29,1.49c0.55,0,1.07-0.2,1.56-0.61l0.62,0.96c-0.71,0.58-1.45,0.85-2.31,0.85
		c-1.76,0-2.9-1.25-2.9-3.18c0-1.1,0.23-1.83,0.77-2.43c0.5-0.56,1.12-0.83,1.93-0.83c0.71,0,1.38,0.24,1.78,0.65
		c0.56,0.58,0.82,1.4,0.82,2.69c0,0.13,0,0.26,0,0.37H200.54z M202.43,9.68c0-0.46-0.05-0.7-0.19-0.92
		c-0.16-0.24-0.38-0.36-0.71-0.36c-0.61,0-0.96,0.48-0.96,1.33v0.02h1.86V9.68z"/>
	<path d="M212.3,12.78c-0.47,0.53-1.08,0.85-2.03,0.85c-1.67,0-2.76-1.25-2.76-3.18c0-1.93,1.1-3.21,2.76-3.21
		c0.88,0,1.56,0.3,2.09,0.92c0.49,0.58,0.71,1.25,0.71,2.24C213.07,11.46,212.83,12.18,212.3,12.78z M211,8.75
		c-0.16-0.2-0.41-0.32-0.7-0.32c-0.38,0-0.7,0.24-0.83,0.62c-0.11,0.32-0.17,0.76-0.17,1.37c0,0.71,0.07,1.24,0.2,1.55
		c0.14,0.34,0.5,0.5,0.82,0.5c0.7,0,1-0.62,1-2.08C211.32,9.56,211.21,9.02,211,8.75z"/>
	<path d="M217.22,5.99c-0.35-0.17-0.47-0.2-0.66-0.2c-0.41,0-0.67,0.25-0.67,0.7v0.88h1.56l-0.41,1.1h-1.14v5.04h-1.57V8.46h-0.55
		v-1.1h0.59c-0.04-0.25-0.06-0.56-0.06-0.84c0-1.21,0.72-1.91,1.98-1.91c0.53,0,0.96,0.11,1.45,0.38L217.22,5.99z"/>
</g>
<rect x="151.35" y="4.58" width="1" height="39.22"/>
</svg>
