<?xml version="1.0" encoding="utf-8"?>
<!-- Generator: Adobe Illustrator 24.2.3, SVG Export Plug-In . SVG Version: 6.00 Build 0)  -->
<svg version="1.1" id="Layer_1" xmlns="http://www.w3.org/2000/svg" xmlns:xlink="http://www.w3.org/1999/xlink" x="0px" y="0px"
	 viewBox="0 0 463.11 218.52" style="enable-background:new 0 0 463.11 218.52;" xml:space="preserve">
<g id="LSU_-_Illustrator_1_">
	<g>
		<path d="M257.04,69.48V47.25h-42.56v-6.29c0-2.78,3.07-5.05,6.8-5.05h35.76V24H211.7c-9.65,0-17.55,5.85-17.55,13.01v22.16h42.56
			v6.36c0,2.78-3.07,5.05-6.87,5.05h-35.68V82.5h45.26C249.14,82.5,257.04,76.65,257.04,69.48z"/>
		<polygon points="189.31,70.65 156.85,70.65 156.85,24 136.66,24 136.66,82.5 189.31,82.5 		"/>
		<path d="M324.58,69.48V24h-20.26v41.54c0,2.85-3.07,5.12-6.87,5.12h-15.5V24.14h-20.11V82.5h45.19
			C316.68,82.5,324.58,76.65,324.58,69.48z"/>
	</g>
</g>
<rect x="22.77" y="114" width="416.19" height="1.51"/>
<g>
	<path d="M41.34,145.69h-4.06v9.32h-5.54V129h12.17c5.42,0,8.74,3.55,8.74,8.38c0,4.6-2.89,7.06-5.69,7.72l5.85,9.91h-6.36
		L41.34,145.69z M43.09,133.76h-5.81v7.18h5.81c2.22,0,3.9-1.4,3.9-3.59C46.99,135.16,45.32,133.76,43.09,133.76z"/>
	<path d="M55.5,145.57c0-5.34,3.74-9.87,9.95-9.87c6.24,0,9.98,4.52,9.98,9.87c0,5.38-3.74,9.91-9.98,9.91
		C59.24,155.48,55.5,150.96,55.5,145.57z M70.28,145.57c0-2.92-1.76-5.46-4.84-5.46c-3.08,0-4.8,2.54-4.8,5.46
		c0,2.96,1.72,5.5,4.8,5.5C68.52,151.07,70.28,148.54,70.28,145.57z"/>
	<path d="M79.09,129h4.95v9.59c1.48-1.91,3.59-2.89,5.81-2.89c4.8,0,8.35,3.74,8.35,9.91c0,6.28-3.59,9.87-8.35,9.87
		c-2.26,0-4.33-1.01-5.81-2.89v2.42h-4.95V129z M88.29,151.07c2.89,0,4.8-2.18,4.8-5.46s-1.91-5.5-4.8-5.5
		c-1.6,0-3.43,0.94-4.25,2.18v6.67C84.86,150.18,86.7,151.07,88.29,151.07z"/>
	<path d="M110.49,135.71c5.62,0,9.44,4.21,9.44,10.37v1.09h-14c0.31,2.38,2.22,4.37,5.42,4.37c1.75,0,3.82-0.7,5.03-1.87l2.18,3.2
		c-1.87,1.72-4.84,2.61-7.76,2.61c-5.73,0-10.06-3.86-10.06-9.91C100.74,140.11,104.75,135.71,110.49,135.71z M105.84,143.82h9.28
		c-0.12-1.79-1.37-4.17-4.64-4.17C107.4,139.65,106.08,141.95,105.84,143.82z"/>
	<path d="M123.51,136.17h4.95v2.57c1.33-1.68,3.67-3,6.01-3v4.84c-0.35-0.08-0.82-0.16-1.37-0.16c-1.64,0-3.82,0.94-4.64,2.15v12.44
		h-4.95V136.17z"/>
	<path d="M138.53,150.33v-9.83h-3.12v-4.33h3.12v-5.15h4.99v5.15h3.82v4.33h-3.82v8.5c0,1.17,0.62,2.07,1.72,2.07
		c0.74,0,1.44-0.27,1.72-0.55l1.05,3.74c-0.74,0.66-2.07,1.21-4.13,1.21C140.4,155.48,138.53,153.69,138.53,150.33z"/>
	<path d="M170.43,145.69h-4.06v9.32h-5.54V129H173c5.42,0,8.74,3.55,8.74,8.38c0,4.6-2.89,7.06-5.69,7.72l5.85,9.91h-6.36
		L170.43,145.69z M172.18,133.76h-5.81v7.18h5.81c2.22,0,3.9-1.4,3.9-3.59C176.08,135.16,174.41,133.76,172.18,133.76z"/>
	<path d="M194.33,135.71c5.62,0,9.44,4.21,9.44,10.37v1.09h-14c0.31,2.38,2.22,4.37,5.42,4.37c1.75,0,3.82-0.7,5.03-1.87l2.18,3.2
		c-1.87,1.72-4.84,2.61-7.76,2.61c-5.73,0-10.06-3.86-10.06-9.91C184.58,140.11,188.6,135.71,194.33,135.71z M189.69,143.82h9.28
		c-0.12-1.79-1.37-4.17-4.64-4.17C191.25,139.65,189.93,141.95,189.69,143.82z"/>
	<path d="M206.85,130.79c0-1.64,1.36-2.96,2.96-2.96c1.64,0,2.96,1.33,2.96,2.96c0,1.64-1.33,2.96-2.96,2.96
		C208.22,133.76,206.85,132.43,206.85,130.79z M207.36,136.17h4.95v18.84h-4.95V136.17z"/>
	<path d="M226,135.71c3.86,0,6.2,1.68,7.45,3.39l-3.24,3.04c-0.9-1.33-2.26-2.03-3.98-2.03c-3,0-5.11,2.18-5.11,5.46
		s2.11,5.5,5.11,5.5c1.72,0,3.08-0.78,3.98-2.03l3.24,3c-1.25,1.75-3.59,3.43-7.45,3.43c-5.81,0-9.98-4.09-9.98-9.91
		C216.02,139.8,220.19,135.71,226,135.71z"/>
	<path d="M249.44,143.55c0-2.61-1.37-3.43-3.51-3.43c-1.91,0-3.43,1.09-4.29,2.22v12.68h-4.95V129h4.95v9.63
		c1.21-1.44,3.55-2.92,6.63-2.92c4.13,0,6.12,2.26,6.12,5.93v13.38h-4.95V143.55z"/>
	<path d="M270.66,147.13c1.83,1.91,4.68,3.51,8.27,3.51c3.04,0,4.52-1.44,4.52-2.92c0-1.95-2.26-2.61-5.26-3.32
		c-4.25-0.97-9.71-2.15-9.71-7.96c0-4.33,3.74-7.84,9.87-7.84c4.13,0,7.57,1.25,10.14,3.63l-3.08,4.06
		c-2.11-1.95-4.91-2.85-7.45-2.85c-2.5,0-3.82,1.09-3.82,2.65c0,1.75,2.18,2.3,5.19,3c4.29,0.98,9.75,2.26,9.75,8.04
		c0,4.76-3.39,8.35-10.41,8.35c-4.99,0-8.58-1.68-11-4.13L270.66,147.13z"/>
	<path d="M301.47,135.71c3.86,0,6.2,1.68,7.45,3.39l-3.24,3.04c-0.9-1.33-2.26-2.03-3.98-2.03c-3,0-5.11,2.18-5.11,5.46
		s2.11,5.5,5.11,5.5c1.72,0,3.08-0.78,3.98-2.03l3.24,3c-1.25,1.75-3.59,3.43-7.45,3.43c-5.81,0-9.98-4.09-9.98-9.91
		C291.48,139.8,295.65,135.71,301.47,135.71z"/>
	<path d="M324.9,143.55c0-2.61-1.37-3.43-3.51-3.43c-1.91,0-3.43,1.09-4.29,2.22v12.68h-4.95V129h4.95v9.63
		c1.21-1.44,3.55-2.92,6.63-2.92c4.13,0,6.12,2.26,6.12,5.93v13.38h-4.95V143.55z"/>
	<path d="M333.56,145.57c0-5.34,3.74-9.87,9.95-9.87c6.24,0,9.98,4.52,9.98,9.87c0,5.38-3.74,9.91-9.98,9.91
		C337.31,155.48,333.56,150.96,333.56,145.57z M348.34,145.57c0-2.92-1.75-5.46-4.84-5.46s-4.8,2.54-4.8,5.46
		c0,2.96,1.72,5.5,4.8,5.5S348.34,148.54,348.34,145.57z"/>
	<path d="M355.95,145.57c0-5.34,3.74-9.87,9.95-9.87c6.24,0,9.98,4.52,9.98,9.87c0,5.38-3.74,9.91-9.98,9.91
		C359.69,155.48,355.95,150.96,355.95,145.57z M370.73,145.57c0-2.92-1.75-5.46-4.84-5.46s-4.8,2.54-4.8,5.46
		c0,2.96,1.72,5.5,4.8,5.5S370.73,148.54,370.73,145.57z"/>
	<path d="M379.54,129h4.95v26.01h-4.95V129z"/>
	<path d="M398.18,145.57c0-5.34,3.74-9.87,9.95-9.87c6.24,0,9.98,4.52,9.98,9.87c0,5.38-3.74,9.91-9.98,9.91
		C401.93,155.48,398.18,150.96,398.18,145.57z M412.96,145.57c0-2.92-1.75-5.46-4.84-5.46s-4.8,2.54-4.8,5.46
		c0,2.96,1.72,5.5,4.8,5.5S412.96,148.54,412.96,145.57z"/>
	<path d="M422.87,140.5h-3.12v-4.33h3.12v-1.01c0-4.1,2.65-6.55,6.36-6.55c1.4,0,2.69,0.31,3.59,0.78l-1.01,3.51
		c-0.43-0.27-1.01-0.39-1.6-0.39c-1.4,0-2.34,0.94-2.34,2.73v0.94h3.82v4.33h-3.82v14.51h-4.99V140.5z"/>
	<path d="M23.77,168h5.54v21.14h11v4.88H23.77V168z"/>
	<path d="M55.36,192.06c-1.29,1.52-3.51,2.42-5.97,2.42c-3,0-6.55-2.03-6.55-6.24c0-4.41,3.55-6.01,6.55-6.01
		c2.5,0,4.72,0.78,5.97,2.3v-2.61c0-1.91-1.64-3.16-4.13-3.16c-2.03,0-3.9,0.74-5.5,2.22l-1.87-3.32c2.3-2.03,5.27-2.96,8.23-2.96
		c4.29,0,8.23,1.72,8.23,7.14v12.17h-4.95V192.06z M55.36,187.15c-0.82-1.09-2.38-1.64-3.98-1.64c-1.95,0-3.55,1.01-3.55,2.85
		c0,1.75,1.6,2.77,3.55,2.77c1.6,0,3.16-0.55,3.98-1.64V187.15z"/>
	<path d="M77.94,182.62c0-2.61-1.36-3.51-3.47-3.51c-1.95,0-3.47,1.09-4.29,2.22v12.68h-4.95v-18.84h4.95v2.46
		c1.21-1.44,3.51-2.92,6.59-2.92c4.13,0,6.12,2.34,6.12,6.01v13.3h-4.95V182.62z"/>
	<path d="M100.75,191.59c-1.48,1.87-3.55,2.89-5.81,2.89c-4.76,0-8.35-3.59-8.35-9.87c0-6.16,3.55-9.91,8.35-9.91
		c2.22,0,4.33,0.97,5.81,2.89V168h4.99v26.01h-4.99V191.59z M100.75,181.26c-0.82-1.25-2.61-2.14-4.29-2.14
		c-2.81,0-4.76,2.22-4.76,5.5c0,3.24,1.95,5.46,4.76,5.46c1.68,0,3.47-0.9,4.29-2.14V181.26z"/>
	<path d="M111.17,188.08c1.37,1.29,4.17,2.57,6.51,2.57c2.15,0,3.16-0.74,3.16-1.91c0-1.33-1.64-1.79-3.78-2.22
		c-3.24-0.62-7.41-1.4-7.41-5.89c0-3.16,2.77-5.93,7.72-5.93c3.2,0,5.73,1.09,7.6,2.57l-1.99,3.39c-1.13-1.21-3.28-2.18-5.58-2.18
		c-1.79,0-2.96,0.66-2.96,1.75c0,1.17,1.48,1.6,3.59,2.03c3.24,0.62,7.57,1.48,7.57,6.16c0,3.43-2.92,6.04-8.15,6.04
		c-3.28,0-6.44-1.09-8.42-2.92L111.17,188.08z"/>
	<path d="M138.04,174.71c3.86,0,6.2,1.68,7.45,3.39l-3.24,3.04c-0.9-1.33-2.26-2.03-3.98-2.03c-3,0-5.11,2.18-5.11,5.46
		s2.11,5.5,5.11,5.5c1.72,0,3.08-0.78,3.98-2.03l3.24,3c-1.25,1.75-3.59,3.43-7.45,3.43c-5.81,0-9.98-4.09-9.98-9.91
		C128.05,178.8,132.23,174.71,138.04,174.71z"/>
	<path d="M160.03,192.06c-1.29,1.52-3.51,2.42-5.97,2.42c-3,0-6.55-2.03-6.55-6.24c0-4.41,3.55-6.01,6.55-6.01
		c2.5,0,4.72,0.78,5.97,2.3v-2.61c0-1.91-1.64-3.16-4.13-3.16c-2.03,0-3.9,0.74-5.5,2.22l-1.87-3.32c2.3-2.03,5.27-2.96,8.23-2.96
		c4.29,0,8.23,1.72,8.23,7.14v12.17h-4.95V192.06z M160.03,187.15c-0.82-1.09-2.38-1.64-3.98-1.64c-1.95,0-3.55,1.01-3.55,2.85
		c0,1.75,1.6,2.77,3.55,2.77c1.6,0,3.16-0.55,3.98-1.64V187.15z"/>
	<path d="M169.9,201.19v-26.01h4.95v2.38c1.44-1.83,3.51-2.85,5.81-2.85c4.84,0,8.35,3.59,8.35,9.87s-3.51,9.91-8.35,9.91
		c-2.22,0-4.29-0.94-5.81-2.89v9.59H169.9z M179.1,179.11c-1.6,0-3.43,0.94-4.25,2.14v6.67c0.82,1.17,2.65,2.14,4.25,2.14
		c2.85,0,4.76-2.22,4.76-5.5C183.86,181.34,181.95,179.11,179.1,179.11z"/>
	<path d="M201.26,174.71c5.62,0,9.44,4.21,9.44,10.37v1.09h-14c0.31,2.38,2.22,4.37,5.42,4.37c1.75,0,3.82-0.7,5.03-1.87l2.18,3.2
		c-1.87,1.72-4.84,2.61-7.76,2.61c-5.73,0-10.06-3.86-10.06-9.91C191.51,179.11,195.52,174.71,201.26,174.71z M196.61,182.82h9.28
		c-0.12-1.79-1.37-4.17-4.64-4.17C198.17,178.65,196.85,180.95,196.61,182.82z"/>
	<path d="M240.96,189.53h-11.62l-1.64,4.49h-6.08L231.68,168h6.94l10.02,26.01h-6.04L240.96,189.53z M230.82,184.73h8.62
		l-4.29-11.93L230.82,184.73z"/>
	<path d="M250.94,175.17h4.95v2.57c1.33-1.68,3.67-3,6.01-3v4.84c-0.35-0.08-0.82-0.16-1.37-0.16c-1.64,0-3.82,0.94-4.64,2.15v12.44
		h-4.95V175.17z"/>
	<path d="M273.76,174.71c3.86,0,6.2,1.68,7.45,3.39l-3.24,3.04c-0.9-1.33-2.26-2.03-3.98-2.03c-3,0-5.11,2.18-5.11,5.46
		s2.11,5.5,5.11,5.5c1.72,0,3.08-0.78,3.98-2.03l3.24,3c-1.25,1.75-3.59,3.43-7.45,3.43c-5.81,0-9.98-4.09-9.98-9.91
		C263.77,178.8,267.94,174.71,273.76,174.71z"/>
	<path d="M297.19,182.55c0-2.61-1.37-3.43-3.51-3.43c-1.91,0-3.43,1.09-4.29,2.22v12.68h-4.95V168h4.95v9.63
		c1.21-1.44,3.55-2.92,6.63-2.92c4.13,0,6.12,2.26,6.12,5.93v13.38h-4.95V182.55z"/>
	<path d="M306.55,169.79c0-1.64,1.37-2.96,2.96-2.96c1.64,0,2.96,1.33,2.96,2.96c0,1.64-1.33,2.96-2.96,2.96
		C307.92,172.76,306.55,171.43,306.55,169.79z M307.06,175.17h4.95v18.84h-4.95V175.17z"/>
	<path d="M317.9,189.33v-9.83h-3.12v-4.33h3.12v-5.15h4.99v5.15h3.82v4.33h-3.82v8.5c0,1.17,0.63,2.07,1.72,2.07
		c0.74,0,1.44-0.27,1.72-0.55l1.05,3.74c-0.74,0.66-2.07,1.21-4.13,1.21C319.77,194.48,317.9,192.69,317.9,189.33z"/>
	<path d="M338.65,174.71c5.62,0,9.44,4.21,9.44,10.37v1.09h-14c0.31,2.38,2.22,4.37,5.42,4.37c1.75,0,3.82-0.7,5.03-1.87l2.18,3.2
		c-1.87,1.72-4.84,2.61-7.76,2.61c-5.73,0-10.06-3.86-10.06-9.91C328.9,179.11,332.92,174.71,338.65,174.71z M334.01,182.82h9.28
		c-0.12-1.79-1.37-4.17-4.64-4.17C335.57,178.65,334.24,180.95,334.01,182.82z"/>
	<path d="M360.45,174.71c3.86,0,6.2,1.68,7.45,3.39l-3.24,3.04c-0.9-1.33-2.26-2.03-3.98-2.03c-3,0-5.11,2.18-5.11,5.46
		s2.11,5.5,5.11,5.5c1.72,0,3.08-0.78,3.98-2.03l3.24,3c-1.25,1.75-3.59,3.43-7.45,3.43c-5.81,0-9.98-4.09-9.98-9.91
		C350.47,178.8,354.64,174.71,360.45,174.71z"/>
	<path d="M372.11,189.33v-9.83h-3.12v-4.33h3.12v-5.15h4.99v5.15h3.82v4.33h-3.82v8.5c0,1.17,0.63,2.07,1.72,2.07
		c0.74,0,1.44-0.27,1.72-0.55l1.05,3.74c-0.74,0.66-2.07,1.21-4.13,1.21C373.98,194.48,372.11,192.69,372.11,189.33z"/>
	<path d="M397.03,191.63c-1.29,1.44-3.55,2.85-6.63,2.85c-4.13,0-6.08-2.26-6.08-5.93v-13.38h4.95v11.43c0,2.61,1.37,3.47,3.47,3.47
		c1.91,0,3.43-1.05,4.29-2.14v-12.75h4.95v18.84h-4.95V191.63z"/>
	<path d="M406.9,175.17h4.95v2.57c1.33-1.68,3.67-3,6.01-3v4.84c-0.35-0.08-0.82-0.16-1.37-0.16c-1.64,0-3.82,0.94-4.64,2.15v12.44
		h-4.95V175.17z"/>
	<path d="M429.48,174.71c5.62,0,9.44,4.21,9.44,10.37v1.09h-14c0.31,2.38,2.22,4.37,5.42,4.37c1.75,0,3.82-0.7,5.03-1.87l2.18,3.2
		c-1.87,1.72-4.84,2.61-7.76,2.61c-5.73,0-10.06-3.86-10.06-9.91C419.73,179.11,423.75,174.71,429.48,174.71z M424.84,182.82h9.28
		c-0.12-1.79-1.37-4.17-4.64-4.17C426.4,178.65,425.07,180.95,424.84,182.82z"/>
</g>
</svg>
